<?xml version="1.0" encoding="utf-8"?>
<!-- Generator: Adobe Illustrator 26.5.0, SVG Export Plug-In . SVG Version: 6.00 Build 0)  -->
<svg version="1.1" id="Ebene_1" xmlns="http://www.w3.org/2000/svg" xmlns:xlink="http://www.w3.org/1999/xlink" x="0px" y="0px"
	 viewBox="0 0 399.4 344" style="enable-background:new 0 0 399.4 344;" xml:space="preserve">
<style type="text/css">
	.st0{fill:#7D9099;}
	.st1{fill-rule:evenodd;clip-rule:evenodd;fill:#7D9099;}
	.st2{fill:#3192D0;}
</style>
<path class="st0" d="M42.3,344c2.9,0,5.1-0.6,6.7-1.9c1.6-1.2,2.4-3.1,2.4-5.5c0-1.9-0.6-3.4-1.7-4.6c-1.1-1.2-2.8-2.1-5.1-2.7
	l-2.6-0.8c-1.4-0.5-2.4-0.9-2.9-1.4c-0.6-0.5-0.8-1.2-0.8-2c0-0.6,0.1-1,0.4-1.4c0.3-0.4,0.6-0.7,1.1-0.9c0.5-0.2,1.1-0.4,1.6-0.5
	c0.6-0.1,1.3-0.1,2-0.1c1,0,2.1,0.1,3.3,0.4c1.1,0.3,2,0.6,2.7,1.1v-4c-0.7-0.4-1.7-0.6-2.8-0.8c-1.1-0.2-2.2-0.3-3.2-0.3
	c-2.7,0-4.9,0.6-6.6,1.7c-1.7,1.1-2.5,2.8-2.5,4.9c0,1.9,0.5,3.3,1.6,4.5c1.1,1.1,2.6,2,4.7,2.6l2.6,0.8c1.5,0.5,2.6,1,3.2,1.6
	c0.6,0.6,1,1.4,1,2.2c0,1-0.4,1.9-1.3,2.4c-0.9,0.6-2.1,0.9-3.7,0.9c-0.7,0-1.5-0.1-2.2-0.2c-0.7-0.1-1.4-0.3-2.1-0.4
	c-0.6-0.2-1.3-0.4-1.9-0.6c-0.5-0.2-1-0.4-1.4-0.7v4.2c0.9,0.5,2.1,0.9,3.5,1.1C39.4,343.9,40.8,344,42.3,344 M53.4,319.1L63.6,344
	l7.5-16.3l7.5,16.3l10.2-24.9h-4.6l-6.1,15.3l-7.1-15.8L64,334.4L58,319.1H53.4L53.4,319.1z M95.2,314.1c0.8,0,1.6-0.3,2.1-0.9
	c0.6-0.6,0.9-1.3,0.9-2.1c0-0.8-0.3-1.6-0.9-2.1c-0.6-0.6-1.3-0.9-2.1-0.9c-0.8,0-1.6,0.3-2.1,0.9c-0.6,0.6-0.9,1.3-0.9,2.1
	c0,0.8,0.3,1.5,0.9,2.1C93.6,313.8,94.3,314.1,95.2,314.1"/>
<path class="st1" d="M93,319.1h4.2v24.4H93V319.1z"/>
<path class="st0" d="M111.8,344c2.9,0,5.1-0.6,6.7-1.9c1.6-1.2,2.4-3.1,2.4-5.5c0-1.9-0.6-3.4-1.7-4.6c-1.1-1.2-2.8-2.1-5.1-2.7
	l-2.6-0.8c-1.4-0.5-2.4-0.9-2.9-1.4c-0.6-0.5-0.8-1.2-0.8-2c0-0.6,0.1-1,0.4-1.4c0.3-0.4,0.6-0.7,1.1-0.9c0.5-0.2,1.1-0.4,1.6-0.5
	c0.6-0.1,1.3-0.1,2-0.1c1,0,2.1,0.1,3.3,0.4c1.1,0.3,2,0.6,2.7,1.1v-4c-0.7-0.4-1.7-0.6-2.8-0.8c-1.1-0.2-2.2-0.3-3.2-0.3
	c-2.7,0-4.9,0.6-6.6,1.7c-1.7,1.1-2.5,2.8-2.5,4.9c0,1.9,0.5,3.3,1.6,4.5c1.1,1.1,2.6,2,4.7,2.6l2.6,0.8c1.5,0.5,2.6,1,3.2,1.6
	c0.6,0.6,1,1.4,1,2.2c0,1-0.4,1.9-1.3,2.4c-0.9,0.6-2.1,0.9-3.7,0.9c-0.7,0-1.5-0.1-2.2-0.2c-0.7-0.1-1.4-0.3-2.1-0.4
	c-0.6-0.2-1.3-0.4-1.9-0.6c-0.5-0.2-1-0.4-1.4-0.7v4.2c0.9,0.5,2.1,0.9,3.5,1.1C108.9,343.9,110.3,344,111.8,344 M133.3,344
	c2.9,0,5.1-0.6,6.7-1.9c1.6-1.2,2.4-3.1,2.4-5.5c0-1.9-0.6-3.4-1.7-4.6c-1.1-1.2-2.8-2.1-5.1-2.7l-2.6-0.8c-1.4-0.5-2.4-0.9-2.9-1.4
	c-0.6-0.5-0.8-1.2-0.8-2c0-0.6,0.1-1,0.4-1.4c0.3-0.4,0.6-0.7,1.1-0.9c0.5-0.2,1.1-0.4,1.6-0.5c0.6-0.1,1.3-0.1,2-0.1
	c1,0,2.1,0.1,3.3,0.4c1.1,0.3,2,0.6,2.7,1.1v-4c-0.7-0.4-1.7-0.6-2.8-0.8c-1.1-0.2-2.2-0.3-3.2-0.3c-2.7,0-4.9,0.6-6.6,1.7
	c-1.7,1.1-2.5,2.8-2.5,4.9c0,1.9,0.5,3.3,1.6,4.5c1.1,1.1,2.6,2,4.7,2.6l2.6,0.8c1.5,0.5,2.6,1,3.2,1.6c0.6,0.6,1,1.4,1,2.2
	c0,1-0.4,1.9-1.3,2.4c-0.9,0.6-2.1,0.9-3.7,0.9c-0.7,0-1.5-0.1-2.2-0.2c-0.7-0.1-1.4-0.3-2.1-0.4c-0.6-0.2-1.3-0.4-1.9-0.6
	c-0.5-0.2-1-0.4-1.4-0.7v4.2c0.9,0.5,2.1,0.9,3.5,1.1C130.4,343.9,131.8,344,133.3,344 M162.5,329c0.2-1.2,0.5-2.2,1-3
	c0.5-0.8,1.1-1.5,1.8-2.1c0.7-0.5,1.4-0.9,2.2-1.2c0.8-0.3,1.6-0.4,2.4-0.4c1.9,0,3.4,0.6,4.6,1.8c1.2,1.2,1.9,2.8,2.2,4.9H162.5z
	 M180.5,326.9c-0.5-1.7-1.2-3.1-2.1-4.3c-1-1.2-2.2-2.2-3.6-2.9c-1.4-0.7-3-1-4.9-1c-1.8,0-3.5,0.3-4.9,1c-1.4,0.6-2.7,1.5-3.8,2.6
	c-1.1,1.1-1.9,2.5-2.4,4c-0.6,1.5-0.9,3.2-0.9,5.1c0,2.1,0.4,4,1,5.5c0.7,1.6,1.6,2.9,2.8,4c1.2,1.1,2.5,1.9,4.1,2.4
	c1.6,0.5,3.3,0.8,5,0.8c1.8,0,3.3-0.1,4.5-0.4c1.2-0.3,2.3-0.7,3.4-1.2v-4.3c-1,0.6-2.2,1.1-3.3,1.5c-1.2,0.4-2.7,0.6-4.3,0.6
	c-1.1,0-2.2-0.1-3.2-0.4c-1-0.3-2-0.7-2.8-1.4c-0.8-0.6-1.5-1.4-2-2.4s-0.8-2.2-0.8-3.6h18.7C181.2,330.4,181,328.5,180.5,326.9
	 M204.6,319.1l-8.5,16.4l-8.4-16.4h-4.8l13.2,24.9l13.3-24.9H204.6L204.6,319.1z M231.9,334.8c-0.4,1-1,2-1.7,2.8
	c-0.7,0.8-1.7,1.4-2.7,1.9c-1,0.5-2.2,0.7-3.5,0.7c-1.3,0-2.4-0.2-3.5-0.7c-1-0.4-1.9-1.1-2.7-1.9c-0.8-0.8-1.3-1.7-1.7-2.8
	c-0.4-1.1-0.6-2.2-0.6-3.4c0-1.2,0.2-2.3,0.6-3.4c0.4-1,1-2,1.7-2.8c0.8-0.8,1.7-1.4,2.7-1.9c1-0.5,2.2-0.7,3.5-0.7
	c1.3,0,2.4,0.2,3.5,0.7c1,0.4,1.9,1.1,2.7,1.9c0.7,0.8,1.3,1.8,1.7,2.8c0.4,1.1,0.6,2.2,0.6,3.4
	C232.6,332.6,232.3,333.7,231.9,334.8 M235.9,326.4c-0.6-1.5-1.5-2.9-2.7-4c-1.1-1.1-2.5-2-4-2.7c-1.6-0.7-3.3-1-5.1-1
	c-1.9,0-3.6,0.3-5.1,1c-1.6,0.7-2.9,1.6-4,2.7c-1.1,1.2-2.1,2.5-2.7,4c-0.6,1.5-1,3.2-1,5s0.3,3.4,1,5c0.6,1.5,1.5,2.9,2.7,4
	c1.1,1.1,2.5,2,4,2.7c1.6,0.7,3.3,1,5.1,1c1.8,0,3.5-0.3,5.1-1c1.6-0.7,2.9-1.6,4-2.7c1.1-1.2,2.1-2.5,2.7-4c0.6-1.5,1-3.2,1-5
	C236.8,329.6,236.5,327.9,235.9,326.4"/>
<path class="st1" d="M242.8,308.9h4.2v34.6h-4.2V308.9z"/>
<path class="st0" d="M271.1,340.4v3.1h4.2v-24.4h-4.2v16.2c-0.5,1.4-1.3,2.6-2.4,3.5c-1.1,0.9-2.4,1.3-4,1.3c-1.8,0-3.3-0.6-4.3-1.7
	c-1-1.2-1.6-2.8-1.6-5v-14.3h-4.2v15c0,1.5,0.2,2.9,0.7,4.1s1.1,2.3,1.9,3.1c0.8,0.9,1.8,1.5,2.9,2c1.1,0.5,2.4,0.7,3.7,0.7
	c1.4,0,2.7-0.3,4.1-0.9C269.2,342.6,270.3,341.7,271.1,340.4 M285.7,323v20.5h4.2V323h7.5v-3.9h-7.5v-8.6l-4.2,2.5v6.1h-5.7v3.9
	H285.7z M304.2,314.1c0.8,0,1.6-0.3,2.1-0.9c0.6-0.6,0.9-1.3,0.9-2.1c0-0.8-0.3-1.6-0.9-2.1c-0.6-0.6-1.3-0.9-2.1-0.9
	s-1.6,0.3-2.1,0.9c-0.6,0.6-0.9,1.3-0.9,2.1c0,0.8,0.3,1.5,0.9,2.1C302.6,313.8,303.3,314.1,304.2,314.1"/>
<path class="st1" d="M302,319.1h4.2v24.4H302V319.1z"/>
<path class="st0" d="M332.8,334.8c-0.4,1-1,2-1.7,2.8c-0.7,0.8-1.7,1.4-2.7,1.9c-1,0.5-2.2,0.7-3.5,0.7c-1.3,0-2.4-0.2-3.5-0.7
	c-1-0.4-1.9-1.1-2.7-1.9c-0.8-0.8-1.3-1.7-1.7-2.8c-0.4-1.1-0.6-2.2-0.6-3.4c0-1.2,0.2-2.3,0.6-3.4c0.4-1,1-2,1.7-2.8
	c0.8-0.8,1.7-1.4,2.7-1.9c1-0.5,2.2-0.7,3.5-0.7c1.3,0,2.4,0.2,3.5,0.7c1,0.4,1.9,1.1,2.7,1.9c0.7,0.8,1.3,1.8,1.7,2.8
	c0.4,1.1,0.6,2.2,0.6,3.4C333.4,332.6,333.2,333.7,332.8,334.8 M336.8,326.4c-0.6-1.5-1.5-2.9-2.7-4c-1.1-1.1-2.5-2-4-2.7
	c-1.6-0.7-3.3-1-5.1-1c-1.9,0-3.6,0.3-5.1,1c-1.6,0.7-2.9,1.6-4,2.7c-1.1,1.2-2.1,2.5-2.7,4c-0.6,1.5-1,3.2-1,5s0.3,3.4,1,5
	c0.6,1.5,1.5,2.9,2.7,4c1.1,1.1,2.5,2,4,2.7c1.6,0.7,3.3,1,5.1,1c1.8,0,3.5-0.3,5.1-1c1.6-0.7,2.9-1.6,4-2.7c1.1-1.2,2.1-2.5,2.7-4
	c0.6-1.5,1-3.2,1-5C337.7,329.6,337.4,327.9,336.8,326.4 M347.9,322.2v-3.1h-4.2v24.4h4.2v-16.2c0.5-1.4,1.3-2.6,2.4-3.5
	c1.1-0.9,2.6-1.3,4.3-1.3c1.9,0,3.4,0.6,4.5,1.7c1.1,1.2,1.6,2.8,1.6,5v14.3h4.1v-15c0-1.5-0.2-2.9-0.7-4.1
	c-0.5-1.2-1.1-2.3-1.9-3.1c-0.8-0.9-1.8-1.5-2.9-2c-1.1-0.5-2.4-0.7-3.8-0.7c-1.6,0-3,0.3-4.4,0.9C349.9,320,348.8,321,347.9,322.2"
	/>
<path class="st2" d="M246.9,0c0,12.5-5,24.5-13.8,33.4c-18.4,18.4-48.3,18.4-66.7,0c-8.9-8.9-13.8-20.9-13.8-33.4h-39.3v151.2h39.3
	V72.5c14,9.1,30.4,14,47.2,14c16.8,0,33.2-4.9,47.2-14v78.6h39.3V0H246.9z"/>
<path class="st1" d="M387.2,206.6h12.2v83.2h-12.2V206.6z"/>
<path class="st0" d="M331.5,255.8c0.4-2.1,1.2-3.9,2.2-5.4c1-1.5,2.3-2.8,3.7-3.8c1.4-1,3.1-1.8,4.8-2.3c1.7-0.5,3.5-0.8,5.3-0.8
	c3.5,0,6.7,1.1,9.6,3.2c2.8,2.1,4.6,5.2,5.3,9.1L331.5,255.8L331.5,255.8z M372.6,248.9c-1.4-3.4-3.3-6.3-5.8-8.6
	c-2.4-2.3-5.3-4.1-8.5-5.3c-3.3-1.2-6.7-1.8-10.3-1.8c-4.2,0-8.1,0.7-11.6,2.2c-3.5,1.5-6.6,3.5-9.1,6.1c-2.5,2.6-4.5,5.6-6,9.1
	c-1.4,3.5-2.2,7.3-2.2,11.4c0,4.2,0.7,8.1,2.2,11.6c1.4,3.5,3.4,6.6,6,9.1c2.6,2.5,5.6,4.5,9.1,5.9c3.5,1.4,7.4,2.1,11.6,2.1
	c5.8,0,10.9-1.1,15.1-3.4c4.3-2.3,7.6-5.4,10.1-9.4l-9.3-6.7c-1.5,2.4-3.5,4.5-6.1,6c-2.6,1.6-5.8,2.4-9.8,2.4
	c-2.3,0-4.5-0.3-6.5-1.1c-2-0.7-3.8-1.7-5.3-3c-1.5-1.3-2.8-3-3.7-4.8c-0.9-1.8-1.5-3.9-1.6-6.2h43.6c0.1-0.9,0.1-1.6,0.1-2.2v-1.8
	C374.7,256.3,374,252.3,372.6,248.9 M285.8,290.9c5.8,0,10.9-1.4,15.5-4.2c4.5-2.8,8-6.5,10.4-11.1l-10.6-5.8
	c-1.3,2.8-3.3,5.1-5.9,7c-2.6,1.8-5.7,2.8-9.3,2.8c-2.4,0-4.7-0.4-6.8-1.3c-2-0.9-3.9-2.1-5.4-3.7c-1.5-1.6-2.7-3.5-3.5-5.6
	c-0.8-2.1-1.2-4.4-1.2-6.9c0-2.4,0.4-4.7,1.2-6.9c0.8-2.1,2-4,3.5-5.6c1.5-1.6,3.4-2.9,5.4-3.7c2.1-0.9,4.3-1.3,6.8-1.3
	c3.5,0,6.6,0.9,9.3,2.8c2.6,1.8,4.6,4.2,5.9,7l10.6-5.8c-2.4-4.7-5.8-8.4-10.4-11.1c-4.5-2.8-9.7-4.2-15.5-4.2
	c-4.1,0-8,0.7-11.6,2.2c-3.6,1.5-6.7,3.5-9.3,6s-4.7,5.6-6.2,9.1c-1.5,3.5-2.2,7.4-2.2,11.4c0,4.1,0.7,8,2.2,11.5
	c1.5,3.5,3.5,6.5,6.2,9.1c2.6,2.6,5.7,4.6,9.3,6C277.8,290.1,281.7,290.9,285.8,290.9"/>
<path class="st1" d="M232,234.3h12.2v55.4H232V234.3z"/>
<path class="st0" d="M238.1,222.2c2.3,0,4.2-0.8,5.8-2.4c1.6-1.6,2.3-3.5,2.3-5.8c0-2.2-0.8-4.1-2.3-5.7c-1.6-1.6-3.5-2.4-5.8-2.4
	c-2.2,0-4.1,0.8-5.8,2.4c-1.6,1.6-2.4,3.5-2.4,5.7c0,2.3,0.8,4.2,2.4,5.8C233.9,221.4,235.8,222.2,238.1,222.2 M203,269
	c-0.8,2.1-1.9,4-3.4,5.6c-1.4,1.6-3.2,2.8-5.2,3.8c-2,0.9-4.3,1.4-6.7,1.4s-4.7-0.5-6.7-1.4c-2-0.9-3.8-2.2-5.2-3.8
	c-1.4-1.6-2.6-3.5-3.4-5.6c-0.8-2.1-1.2-4.5-1.2-7c0-2.5,0.4-4.8,1.2-7c0.8-2.1,1.9-4,3.4-5.6c1.4-1.6,3.2-2.8,5.2-3.8
	c2-0.9,4.3-1.4,6.7-1.4s4.7,0.5,6.7,1.4c2,0.9,3.8,2.2,5.2,3.8c1.4,1.6,2.6,3.5,3.4,5.6c0.8,2.1,1.2,4.5,1.2,7
	C204.2,264.5,203.8,266.9,203,269 M203.2,206.6v35.1c-1.6-2.2-3.9-4.2-7-5.9c-3.1-1.7-6.7-2.6-10.7-2.6c-3.8,0-7.3,0.8-10.6,2.3
	c-3.3,1.5-6.1,3.6-8.5,6.2c-2.4,2.6-4.2,5.7-5.6,9.1c-1.4,3.5-2.1,7.2-2.1,11.2c0,4,0.7,7.7,2.1,11.2c1.4,3.5,3.2,6.5,5.6,9.1
	c2.4,2.6,5.2,4.7,8.5,6.2c3.3,1.5,6.8,2.3,10.6,2.3c4,0,7.6-0.9,10.7-2.6c3.1-1.7,5.5-3.7,7-5.9v7.4h12.2v-83.2L203.2,206.6
	L203.2,206.6z M107.2,255.8c0.4-2.1,1.2-3.9,2.2-5.4c1-1.5,2.3-2.8,3.7-3.8c1.4-1,3.1-1.8,4.8-2.3c1.7-0.5,3.5-0.8,5.3-0.8
	c3.5,0,6.7,1.1,9.6,3.2c2.8,2.1,4.6,5.2,5.3,9.1L107.2,255.8L107.2,255.8z M148.2,248.9c-1.4-3.4-3.3-6.3-5.8-8.6
	c-2.4-2.3-5.3-4.1-8.5-5.3c-3.3-1.2-6.7-1.8-10.3-1.8c-4.2,0-8.1,0.7-11.6,2.2c-3.5,1.5-6.6,3.5-9.1,6.1c-2.6,2.6-4.5,5.6-6,9.1
	c-1.4,3.5-2.2,7.3-2.2,11.4c0,4.2,0.7,8.1,2.2,11.6c1.4,3.5,3.4,6.6,6,9.1c2.6,2.5,5.6,4.5,9.1,5.9c3.5,1.4,7.4,2.1,11.6,2.1
	c5.8,0,10.9-1.1,15.1-3.4c4.2-2.3,7.6-5.4,10.1-9.4l-9.3-6.7c-1.5,2.4-3.5,4.5-6.1,6c-2.6,1.6-5.8,2.4-9.8,2.4
	c-2.3,0-4.5-0.3-6.5-1.1c-2-0.7-3.8-1.7-5.3-3c-1.5-1.3-2.8-3-3.7-4.8c-0.9-1.8-1.5-3.9-1.6-6.2h43.6c0.1-0.9,0.1-1.6,0.1-2.2v-1.8
	C150.4,256.3,149.7,252.3,148.2,248.9 M70.6,258.6v31.2h12.2v-33.2c0-7.1-1.8-12.8-5.3-17c-3.5-4.2-8.4-6.4-14.7-6.4
	c-3.7,0-7.2,0.9-10.4,2.8c-3.3,1.9-5.7,4.6-7.3,8.1c-1.5-3.5-3.7-6.2-6.6-8.1c-2.9-1.9-6.4-2.9-10.6-2.9c-3.5,0-6.7,0.8-9.4,2.4
	c-2.7,1.6-4.8,3.7-6.4,6.3v-7.5H0v55.4h12.2v-27.3c0-5.8,1.2-10.3,3.7-13.5c2.4-3.1,5.7-4.7,9.6-4.7c3.3,0,5.8,1.3,7.4,3.9
	c1.6,2.6,2.4,6.1,2.4,10.4v31.2h12.2v-28.2c0.1-5.5,1.4-9.8,3.8-12.8c2.4-3,5.5-4.5,9.4-4.5c3.3,0,5.8,1.3,7.4,3.9
	C69.8,250.8,70.6,254.2,70.6,258.6"/>
</svg>
